<svg version="1.1" viewBox="0.0 0.0 651.9685039370079 369.9763779527559" fill="none" stroke="none" stroke-linecap="square" stroke-miterlimit="10" xmlns:xlink="http://www.w3.org/1999/xlink" xmlns="http://www.w3.org/2000/svg"><clipPath id="p.0"><path d="m0 0l651.9685 0l0 369.97638l-651.9685 0l0 -369.97638z" clip-rule="nonzero"/></clipPath><g clip-path="url(#p.0)"><path fill="#000000" fill-opacity="0.0" d="m0 0l651.9685 0l0 369.97638l-651.9685 0z" fill-rule="evenodd"/><g filter="url(#shadowFilter-p.1)"><use xlink:href="#p.1" transform="matrix(1.0 0.0 0.0 1.0 0.0 2.0)"/></g><defs><filter id="shadowFilter-p.1" filterUnits="userSpaceOnUse"><feGaussianBlur in="SourceAlpha" stdDeviation="2.0" result="blur"/><feComponentTransfer in="blur" color-interpolation-filters="sRGB"><feFuncR type="linear" slope="0" intercept="0.0"/><feFuncG type="linear" slope="0" intercept="0.0"/><feFuncB type="linear" slope="0" intercept="0.0"/><feFuncA type="linear" slope="0.5" intercept="0"/></feComponentTransfer></filter></defs><g id="p.1"><path fill="#e06666" d="m3.7375329 366.23117l104.0 -181.29132l104.0 181.29132z" fill-rule="evenodd"/></g><g filter="url(#shadowFilter-p.2)"><use xlink:href="#p.2" transform="matrix(1.0 0.0 0.0 1.0 0.0 2.0)"/></g><defs><filter id="shadowFilter-p.2" filterUnits="userSpaceOnUse"><feGaussianBlur in="SourceAlpha" stdDeviation="2.0" result="blur"/><feComponentTransfer in="blur" color-interpolation-filters="sRGB"><feFuncR type="linear" slope="0" intercept="0.0"/><feFuncG type="linear" slope="0" intercept="0.0"/><feFuncB type="linear" slope="0" intercept="0.0"/><feFuncA type="linear" slope="0.5" intercept="0"/></feComponentTransfer></filter></defs><g id="p.2"><path fill="#ea9999" d="m211.73228 3.6485064l-104.0 181.29134l-104.0 -181.29134z" fill-rule="evenodd"/></g><g filter="url(#shadowFilter-p.3)"><use xlink:href="#p.3" transform="matrix(1.0 0.0 0.0 1.0 0.0 2.0)"/></g><defs><filter id="shadowFilter-p.3" filterUnits="userSpaceOnUse"><feGaussianBlur in="SourceAlpha" stdDeviation="2.0" result="blur"/><feComponentTransfer in="blur" color-interpolation-filters="sRGB"><feFuncR type="linear" slope="0" intercept="0.0"/><feFuncG type="linear" slope="0" intercept="0.0"/><feFuncB type="linear" slope="0" intercept="0.0"/><feFuncA type="linear" slope="0.5" intercept="0"/></feComponentTransfer></filter></defs><g id="p.3"><path fill="#000000" fill-opacity="0.0" d="m40.34844 140.06287l150.01575 0" fill-rule="evenodd"/><path stroke="#6d9eeb" stroke-width="3.0" stroke-linejoin="round" stroke-linecap="butt" d="m40.34844 140.06287l150.01575 0" fill-rule="evenodd"/></g><g filter="url(#shadowFilter-p.4)"><use xlink:href="#p.4" transform="matrix(1.0 0.0 0.0 1.0 0.0 2.0)"/></g><defs><filter id="shadowFilter-p.4" filterUnits="userSpaceOnUse"><feGaussianBlur in="SourceAlpha" stdDeviation="2.0" result="blur"/><feComponentTransfer in="blur" color-interpolation-filters="sRGB"><feFuncR type="linear" slope="0" intercept="0.0"/><feFuncG type="linear" slope="0" intercept="0.0"/><feFuncB type="linear" slope="0" intercept="0.0"/><feFuncA type="linear" slope="0.5" intercept="0"/></feComponentTransfer></filter></defs><g id="p.4"><path fill="#000000" fill-opacity="0.0" d="m28.603674 173.48557l162.29922 97.921265" fill-rule="evenodd"/><path stroke="#6d9eeb" stroke-width="3.0" stroke-linejoin="round" stroke-linecap="butt" d="m28.603674 173.48557l162.29922 97.921265" fill-rule="evenodd"/></g><g filter="url(#shadowFilter-p.5)"><use xlink:href="#p.5" transform="matrix(1.0 0.0 0.0 1.0 0.0 2.0)"/></g><defs><filter id="shadowFilter-p.5" filterUnits="userSpaceOnUse"><feGaussianBlur in="SourceAlpha" stdDeviation="2.0" result="blur"/><feComponentTransfer in="blur" color-interpolation-filters="sRGB"><feFuncR type="linear" slope="0" intercept="0.0"/><feFuncG type="linear" slope="0" intercept="0.0"/><feFuncB type="linear" slope="0" intercept="0.0"/><feFuncA type="linear" slope="0.5" intercept="0"/></feComponentTransfer></filter></defs><g id="p.5"><path fill="#000000" fill-opacity="0.0" d="m169.25294 3.4998395l0 362.58267" fill-rule="evenodd"/><path stroke="#6d9eeb" stroke-width="3.0" stroke-linejoin="round" stroke-linecap="butt" d="m169.25294 3.4998395l0 362.58267" fill-rule="evenodd"/></g><g filter="url(#shadowFilter-p.6)"><use xlink:href="#p.6" transform="matrix(1.0 0.0 0.0 1.0 0.0 2.0)"/></g><defs><filter id="shadowFilter-p.6" filterUnits="userSpaceOnUse"><feGaussianBlur in="SourceAlpha" stdDeviation="2.0" result="blur"/><feComponentTransfer in="blur" color-interpolation-filters="sRGB"><feFuncR type="linear" slope="0" intercept="0.0"/><feFuncG type="linear" slope="0" intercept="0.0"/><feFuncB type="linear" slope="0" intercept="0.0"/><feFuncA type="linear" slope="0.5" intercept="0"/></feComponentTransfer></filter></defs><g id="p.6"><path fill="#000000" fill-opacity="0.0" d="m107.732285 3.6485064l-86.267715 242.89763" fill-rule="evenodd"/><path stroke="#6d9eeb" stroke-width="3.0" stroke-linejoin="round" stroke-linecap="butt" d="m107.732285 3.6485064l-86.267715 242.89763" fill-rule="evenodd"/></g><g filter="url(#shadowFilter-p.7)"><use xlink:href="#p.7" transform="matrix(1.0 0.0 0.0 1.0 0.0 2.0)"/></g><defs><filter id="shadowFilter-p.7" filterUnits="userSpaceOnUse"><feGaussianBlur in="SourceAlpha" stdDeviation="2.0" result="blur"/><feComponentTransfer in="blur" color-interpolation-filters="sRGB"><feFuncR type="linear" slope="0" intercept="0.0"/><feFuncG type="linear" slope="0" intercept="0.0"/><feFuncB type="linear" slope="0" intercept="0.0"/><feFuncA type="linear" slope="0.5" intercept="0"/></feComponentTransfer></filter></defs><g id="p.7"><path fill="#000000" fill-opacity="0.0" d="m168.03674 131.66536l575.81104 0l0 106.64566l-575.81104 0z" fill-rule="evenodd"/><path fill="#000000" fill-opacity="0.0" d="m177.03674 136.99332l162.07205 0l0 98.20804l-162.07205 0l0 -98.20804z" fill-rule="nonzero"/><path fill="#f5f3f4" d="m199.5055 210.36348q-10.875 0 -17.71875 -5.265625q-1.21875 -0.859375 -1.109375 -2.046875q0.109375 -1.1875 1.03125 -1.765625q0.9375 -0.578125 2.171875 0.296875q3.3125 2.515625 7.015625 3.640625q3.703125 1.109375 8.609375 1.109375q6.828125 0 10.25 -2.65625q3.421875 -2.671875 3.421875 -7.0q0 -3.59375 -2.484375 -5.609375q-2.484375 -2.015625 -8.171875 -3.171875l-7.265625 -1.515625q-6.765625 -1.359375 -10.125 -4.59375q-3.34375 -3.25 -3.34375 -8.640625q0 -4.40625 2.265625 -7.703125q2.265625 -3.3125 6.296875 -5.15625q4.046875 -1.84375 9.296875 -1.84375q4.671875 0 8.59375 1.296875q3.9375 1.296875 7.171875 4.109375q1.078125 0.859375 0.9375 2.015625q-0.140625 1.15625 -1.046875 1.703125q-0.890625 0.53125 -2.125 -0.40625q-3.015625 -2.453125 -6.328125 -3.5625q-3.3125 -1.109375 -7.203125 -1.109375q-6.046875 0 -9.6875 2.875q-3.640625 2.875 -3.640625 7.703125q0 3.8125 2.296875 6.015625q2.3125 2.1875 7.4375 3.203125l7.34375 1.515625q7.265625 1.5 10.796875 4.5q3.53125 2.984375 3.53125 8.171875q0 4.09375 -2.203125 7.234375q-2.203125 3.125 -6.3125 4.890625q-4.09375 1.765625 -9.703125 1.765625zm29.219635 -44.5q-3.15625 0 -3.15625 -3.015625q0 -2.953125 3.15625 -2.953125q3.171875 0 3.171875 2.953125q0 3.015625 -3.171875 3.015625zm0 44.203125q-2.21875 0 -2.21875 -2.375l0 -30.8125q0 -2.296875 2.21875 -2.296875q2.171875 0 2.171875 2.296875l0 30.8125q0 2.375 -2.171875 2.375zm16.140259 0.15625q-2.234375 0 -2.234375 -2.234375l0 -31.328125q0 -2.296875 2.234375 -2.296875q2.078125 0 2.078125 2.296875l0 4.328125q3.25 -6.765625 11.015625 -6.765625q8.359375 0 10.59375 7.265625q1.515625 -3.390625 4.609375 -5.328125q3.09375 -1.9375 7.1875 -1.9375q11.59375 0 11.59375 13.53125l0 20.234375q0 2.234375 -2.234375 2.234375q-2.15625 0 -2.15625 -2.234375l0 -19.875q0 -5.1875 -1.84375 -7.625q-1.828125 -2.453125 -6.140625 -2.453125q-4.609375 0 -7.34375 3.203125q-2.734375 3.203125 -2.734375 8.671875l0 18.078125q0 2.234375 -2.171875 2.234375q-2.21875 0 -2.21875 -2.234375l0 -19.875q0 -5.1875 -1.84375 -7.625q-1.828125 -2.453125 -6.078125 -2.453125q-4.6875 0 -7.421875 3.203125q-2.734375 3.203125 -2.734375 8.671875l0 18.078125q0 2.234375 -2.15625 2.234375zm60.82779 12.953125q-2.21875 0 -2.21875 -2.234375l0 -44.28125q0 -2.296875 2.21875 -2.296875q2.171875 0 2.171875 2.296875l0 4.75q1.578125 -3.3125 4.78125 -5.25q3.203125 -1.9375 7.453125 -1.9375q4.6875 0 8.171875 2.234375q3.5 2.21875 5.40625 6.25q1.90625 4.03125 1.90625 9.578125q0 5.546875 -1.90625 9.625q-1.90625 4.0625 -5.40625 6.265625q-3.484375 2.1875 -8.171875 2.1875q-4.25 0 -7.453125 -1.875q-3.203125 -1.875 -4.78125 -5.1875l0 17.640625q0 2.234375 -2.171875 2.234375zm13.765625 -16.484375q5.328125 0 8.484375 -3.78125q3.171875 -3.78125 3.171875 -10.625q0 -6.84375 -3.171875 -10.578125q-3.15625 -3.75 -8.484375 -3.75q-5.328125 0 -8.5 3.75q-3.171875 3.734375 -3.171875 10.578125q0 6.84375 3.171875 10.625q3.171875 3.78125 8.5 3.78125z" fill-rule="nonzero"/><path fill="#f5f3f4" d="m354.95255 210.36348q-4.828125 0 -7.453125 -2.984375q-2.625 -3.0 -2.625 -8.609375l0 -37.9375q0 -2.234375 2.21875 -2.234375q2.171875 0 2.171875 2.234375l0 37.4375q0 8.28125 6.46875 8.28125q0.65625 0 1.1875 -0.078125q0.546875 -0.078125 1.046875 -0.078125q0.65625 -0.0625 0.96875 0.265625q0.328125 0.3125 0.328125 1.328125q0 1.875 -2.15625 2.234375q-0.5 0.140625 -1.078125 0.140625q-0.578125 0 -1.078125 0zm25.269379 0q-8.0625 0 -12.71875 -4.78125q-4.640625 -4.796875 -4.640625 -13.15625q0 -5.390625 2.09375 -9.484375q2.09375 -4.109375 5.796875 -6.40625q3.703125 -2.3125 8.53125 -2.3125q6.984375 0 10.875 4.53125q3.890625 4.53125 3.890625 12.453125q0 2.015625 -2.015625 2.015625l-24.84375 0q0.21875 6.484375 3.5625 9.984375q3.34375 3.484375 9.328125 3.484375q2.65625 0 5.140625 -0.6875q2.484375 -0.6875 4.859375 -2.484375q1.296875 -0.859375 2.234375 -0.390625q0.9375 0.46875 1.046875 1.515625q0.109375 1.03125 -1.125 1.90625q-2.296875 1.859375 -5.578125 2.84375q-3.265625 0.96875 -6.4375 0.96875zm-0.859375 -32.625q-5.484375 0 -8.546875 3.421875q-3.046875 3.421875 -3.5625 8.828125l22.828125 0q-0.140625 -5.765625 -2.875 -9.0q-2.734375 -3.25 -7.84375 -3.25zm63.791138 32.625q-7.28125 0 -12.46875 -3.125q-5.171875 -3.140625 -7.9530945 -8.96875q-2.765625 -5.84375 -2.765625 -13.90625q0 -7.984375 2.765625 -13.8125q2.7812195 -5.84375 7.9530945 -8.96875q5.1875 -3.140625 12.46875 -3.140625q4.75 0 8.84375 1.40625q4.109375 1.40625 7.0625 4.0q1.21875 1.015625 1.078125 2.203125q-0.140625 1.1875 -1.15625 1.6875q-1.0 0.5 -2.296875 -0.5q-5.46875 -4.6875 -13.46875 -4.6875q-8.921875 0 -13.71875 5.734375q-4.78125 5.71875 -4.78125 16.078125q0 10.453125 4.78125 16.171875q4.796875 5.71875 13.71875 5.71875q7.921875 0 13.546875 -4.75q1.296875 -1.0 2.265625 -0.5q0.96875 0.5 1.140625 1.65625q0.1875 1.15625 -0.890625 2.078125q-6.265625 5.625 -16.125 5.625z" fill-rule="nonzero"/><path fill="#000000" fill-opacity="0.0" d="m463.59686 136.99332l128.73608 0l0 98.20804l-128.73608 0l0 -98.20804z" fill-rule="nonzero"/><path fill="#f5f3f4" d="m483.2531 210.36348q-4.890625 0 -8.5 -2.1875q-3.59375 -2.203125 -5.578125 -6.265625q-1.984375 -4.078125 -1.984375 -9.625q0 -5.46875 1.984375 -9.53125q1.984375 -4.078125 5.578125 -6.296875q3.609375 -2.234375 8.5 -2.234375q4.96875 0 8.5625 2.234375q3.609375 2.21875 5.578125 6.296875q1.984375 4.0625 1.984375 9.53125q0 5.546875 -1.984375 9.625q-1.96875 4.0625 -5.578125 6.265625q-3.59375 2.1875 -8.5625 2.1875zm0 -3.671875q5.328125 0 8.484375 -3.78125q3.171875 -3.78125 3.171875 -10.625q0 -6.84375 -3.171875 -10.578125q-3.15625 -3.75 -8.484375 -3.75q-5.328125 0 -8.46875 3.75q-3.125 3.734375 -3.125 10.578125q0 6.84375 3.125 10.625q3.140625 3.78125 8.46875 3.78125zm27.712158 3.53125q-2.21875 0 -2.21875 -2.234375l0 -31.328125q0 -2.296875 2.21875 -2.296875q2.09375 0 2.09375 2.296875l0 4.46875q1.734375 -3.453125 4.96875 -5.171875q3.234375 -1.734375 7.203125 -1.734375q12.453125 0 12.453125 13.53125l0 20.234375q0 2.234375 -2.15625 2.234375q-2.234375 0 -2.234375 -2.234375l0 -19.875q0 -5.1875 -2.09375 -7.625q-2.078125 -2.453125 -6.625 -2.453125q-5.171875 0 -8.3125 3.203125q-3.125 3.203125 -3.125 8.609375l0 18.140625q0 2.234375 -2.171875 2.234375zm40.320007 -44.359375q-3.15625 0 -3.15625 -3.015625q0 -2.953125 3.15625 -2.953125q3.171875 0 3.171875 2.953125q0 3.015625 -3.171875 3.015625zm0 44.203125q-2.21875 0 -2.21875 -2.375l0 -30.8125q0 -2.296875 2.21875 -2.296875q2.171875 0 2.171875 2.296875l0 30.8125q0 2.375 -2.171875 2.375zm28.015259 0.296875q-5.109375 0 -8.78125 -2.265625q-3.671875 -2.265625 -5.65625 -6.40625q-1.984375 -4.140625 -1.984375 -9.625q0 -8.265625 4.359375 -13.046875q4.359375 -4.796875 12.0625 -4.796875q2.671875 0 5.515625 0.9375q2.84375 0.921875 5.0625 2.9375q0.9375 0.734375 0.71875 1.75q-0.203125 1.0 -1.109375 1.46875q-0.90625 0.453125 -1.984375 -0.40625q-2.015625 -1.65625 -4.109375 -2.265625q-2.078125 -0.609375 -3.953125 -0.609375q-5.828125 0 -8.96875 3.671875q-3.125 3.671875 -3.125 10.4375q0 6.765625 3.125 10.625q3.140625 3.84375 8.96875 3.84375q1.875 0 3.953125 -0.609375q2.09375 -0.609375 4.109375 -2.265625q1.15625 -0.859375 1.984375 -0.390625q0.828125 0.46875 1.0 1.484375q0.1875 1.0 -0.671875 1.71875q-2.234375 2.015625 -5.046875 2.921875q-2.796875 0.890625 -5.46875 0.890625z" fill-rule="nonzero"/><path fill="#f5f3f4" d="m609.4736 210.36348q-3.25 0 -6.453125 -0.859375q-3.203125 -0.875 -6.078125 -2.953125q-0.9375 -0.578125 -0.875 -1.625q0.078125 -1.046875 0.828125 -1.625q0.765625 -0.578125 1.921875 0.140625q2.796875 1.875 5.453125 2.59375q2.671875 0.71875 5.34375 0.71875q4.46875 0 6.734375 -1.609375q2.265625 -1.625 2.265625 -4.5q0 -2.234375 -1.515625 -3.53125q-1.515625 -1.296875 -4.75 -2.09375l-6.265625 -1.4375q-8.859375 -2.015625 -8.859375 -9.140625q0 -4.609375 3.59375 -7.40625q3.609375 -2.8125 9.515625 -2.8125q3.09375 0 6.0 0.9375q2.921875 0.921875 5.09375 2.875q0.9375 0.71875 0.78125 1.734375q-0.140625 1.0 -0.96875 1.5q-0.828125 0.5 -1.90625 -0.28125q-2.09375 -1.59375 -4.40625 -2.34375q-2.296875 -0.75 -4.671875 -0.75q-4.171875 0 -6.4375 1.734375q-2.265625 1.71875 -2.265625 4.671875q0 2.234375 1.359375 3.609375q1.375 1.359375 4.46875 2.078125l6.265625 1.4375q4.671875 1.078125 6.96875 3.203125q2.3125 2.125 2.3125 5.71875q0 4.6875 -3.671875 7.359375q-3.671875 2.65625 -9.78125 2.65625z" fill-rule="nonzero"/><path fill="#f5f3f4" d="m177.03674 214.46535l162.07205 0l0 6.4799957l-162.07205 0l0 -6.4799957z" fill-rule="nonzero"/><path fill="#f5f3f4" d="m463.59686 214.46535l128.73608 0l0 6.4799957l-128.73608 0l0 -6.4799957z" fill-rule="nonzero"/></g></g></svg>